<svg xmlns="http://www.w3.org/2000/svg" xmlns:xlink="http://www.w3.org/1999/xlink" width="500" zoomAndPan="magnify" viewBox="0 0 375 374.999991" height="500" preserveAspectRatio="xMidYMid meet" version="1.0"><defs><g/><clipPath id="58f6d7c6e5"><path d="M 19.347656 19.347656 L 355.652344 19.347656 L 355.652344 355.652344 L 19.347656 355.652344 Z M 19.347656 19.347656 " clip-rule="nonzero"/></clipPath><clipPath id="eeda980d6f"><path d="M 187.5 19.347656 C 94.632812 19.347656 19.347656 94.632812 19.347656 187.5 C 19.347656 280.367188 94.632812 355.652344 187.5 355.652344 C 280.367188 355.652344 355.652344 280.367188 355.652344 187.5 C 355.652344 94.632812 280.367188 19.347656 187.5 19.347656 Z M 187.5 19.347656 " clip-rule="nonzero"/></clipPath></defs><g clip-path="url(#58f6d7c6e5)"><g clip-path="url(#eeda980d6f)"><path fill="#000000" d="M 19.347656 19.347656 L 355.652344 19.347656 L 355.652344 355.652344 L 19.347656 355.652344 Z M 19.347656 19.347656 " fill-opacity="1" fill-rule="nonzero"/></g></g><g fill="#a6a6a6" fill-opacity="1"><g transform="translate(45.525087, 250.396361)"><g><path d="M 54.609375 27.953125 C 45.796875 27.953125 39.1875 25.171875 34.78125 19.609375 C 30.375 14.046875 28.171875 6.425781 28.171875 -3.25 L 28.171875 -42.90625 C 28.171875 -50.988281 26.648438 -57.050781 23.609375 -61.09375 C 20.578125 -65.144531 15.234375 -67.316406 7.578125 -67.609375 L 7.578125 -69.5625 C 14.222656 -69.695312 19.316406 -71.644531 22.859375 -75.40625 C 26.398438 -79.164062 28.171875 -85.453125 28.171875 -94.265625 L 28.171875 -133.90625 C 28.171875 -143.726562 30.375 -151.3125 34.78125 -156.65625 C 39.1875 -162.007812 45.722656 -164.6875 54.390625 -164.6875 L 66.3125 -164.6875 L 66.3125 -162.515625 L 60.671875 -162.515625 C 55.617188 -162.515625 52.078125 -160.5625 50.046875 -156.65625 C 48.023438 -152.757812 47.015625 -146.191406 47.015625 -136.953125 L 47.015625 -97.515625 C 47.015625 -88.554688 44.957031 -81.875 40.84375 -77.46875 C 36.726562 -73.0625 29.328125 -70.28125 18.640625 -69.125 L 18.640625 -68.6875 C 29.179688 -67.820312 36.546875 -65.113281 40.734375 -60.5625 C 44.921875 -56.007812 47.015625 -49.113281 47.015625 -39.875 L 47.015625 0.21875 C 47.015625 9.601562 48.0625 16.207031 50.15625 20.03125 C 52.257812 23.863281 55.765625 25.78125 60.671875 25.78125 L 66.3125 25.78125 L 66.3125 27.953125 Z M 54.609375 27.953125 "/></g></g></g><g fill="#a6a6a6" fill-opacity="1"><g transform="translate(255.580119, 250.396361)"><g><path d="M 7.578125 27.953125 L 7.578125 25.78125 L 13.21875 25.78125 C 18.125 25.78125 21.625 23.863281 23.71875 20.03125 C 25.820312 16.207031 26.875 9.601562 26.875 0.21875 L 26.875 -39.875 C 26.875 -49.113281 28.96875 -56.007812 33.15625 -60.5625 C 37.34375 -65.113281 44.632812 -67.820312 55.03125 -68.6875 L 55.03125 -69.125 C 44.34375 -70.28125 36.976562 -73.0625 32.9375 -77.46875 C 28.894531 -81.875 26.875 -88.554688 26.875 -97.515625 L 26.875 -136.953125 C 26.875 -146.191406 25.859375 -152.757812 23.828125 -156.65625 C 21.804688 -160.5625 18.269531 -162.515625 13.21875 -162.515625 L 7.578125 -162.515625 L 7.578125 -164.6875 L 19.5 -164.6875 C 28.164062 -164.6875 34.703125 -162.007812 39.109375 -156.65625 C 43.515625 -151.3125 45.71875 -143.726562 45.71875 -133.90625 L 45.71875 -94.265625 C 45.71875 -85.453125 47.488281 -79.164062 51.03125 -75.40625 C 54.570312 -71.644531 59.664062 -69.695312 66.3125 -69.5625 L 66.3125 -67.609375 C 58.65625 -67.316406 53.304688 -65.144531 50.265625 -61.09375 C 47.234375 -57.050781 45.71875 -50.988281 45.71875 -42.90625 L 45.71875 -3.25 C 45.71875 6.425781 43.515625 14.046875 39.109375 19.609375 C 34.703125 25.171875 28.09375 27.953125 19.28125 27.953125 Z M 7.578125 27.953125 "/></g></g></g><g fill="#ffffff" fill-opacity="1"><g transform="translate(121.460752, 255.82531)"><g><path d="M 28.46875 0.84375 C 22.394531 0.28125 15.300781 0 7.1875 0 L -1.15625 0 L 44.859375 -128.96875 C 46.898438 -134.757812 47.921875 -138.128906 47.921875 -139.078125 C 47.921875 -140.035156 47.890625 -140.617188 47.828125 -140.828125 L 47.921875 -141.03125 C 52.515625 -140.820312 57.382812 -140.71875 62.53125 -140.71875 C 66.757812 -140.71875 71.835938 -140.789062 77.765625 -140.9375 L 77.875 -140.71875 C 77.726562 -140.4375 77.65625 -140.050781 77.65625 -139.5625 C 77.65625 -138.21875 78.710938 -134.65625 80.828125 -128.875 L 127.8125 0.3125 C 126.40625 0.25 124.75 0.21875 122.84375 0.21875 C 122.84375 0.21875 121.007812 0.144531 117.34375 0 C 115.570312 0 113.984375 0 112.578125 0 L 96.171875 0 L 86.234375 -30.46875 L 38.40625 -30.46875 Z M 77.984375 -55.859375 L 62 -105.0625 L 46.453125 -55.859375 Z M 77.984375 -55.859375 "/></g></g></g></svg>